{
  "accessors" : [ {
    "bufferView" : 0,
    "componentType" : 5126,
    "count" : 116,
    "type" : "VEC3",
    "max" : [ 2.0, 7.0, 2.0 ],
    "min" : [ -1.0, 3.0, -1.0 ]
  }, {
    "bufferView" : 1,
    "componentType" : 5126,
    "count" : 116,
    "type" : "VEC2"
  }, {
    "bufferView" : 2,
    "componentType" : 5126,
    "count" : 116,
    "type" : "VEC2"
  }, {
    "bufferView" : 3,
    "componentType" : 5126,
    "count" : 116,
    "type" : "VEC4"
  }, {
    "bufferView" : 4,
    "componentType" : 5125,
    "count" : 174,
    "type" : "SCALAR"
  }, {
    "bufferView" : 5,
    "componentType" : 5126,
    "count" : 5952,
    "type" : "VEC3",
    "max" : [ 5.0006, 4.0006, 5.0006 ],
    "min" : [ -4.0006, -7.0006, -4.0006 ]
  }, {
    "bufferView" : 6,
    "componentType" : 5126,
    "count" : 5952,
    "type" : "VEC2"
  }, {
    "bufferView" : 7,
    "componentType" : 5126,
    "count" : 5952,
    "type" : "VEC2"
  }, {
    "bufferView" : 8,
    "componentType" : 5126,
    "count" : 5952,
    "type" : "VEC4"
  }, {
    "bufferView" : 9,
    "componentType" : 5125,
    "count" : 8928,
    "type" : "SCALAR"
  }, {
    "bufferView" : 10,
    "componentType" : 5126,
    "count" : 116,
    "type" : "VEC3",
    "max" : [ 3.0, 1.0, 3.0 ],
    "min" : [ -2.0, -6.0, -2.0 ]
  }, {
    "bufferView" : 11,
    "componentType" : 5126,
    "count" : 116,
    "type" : "VEC2"
  }, {
    "bufferView" : 12,
    "componentType" : 5126,
    "count" : 116,
    "type" : "VEC2"
  }, {
    "bufferView" : 13,
    "componentType" : 5126,
    "count" : 116,
    "type" : "VEC4"
  }, {
    "bufferView" : 14,
    "componentType" : 5125,
    "count" : 174,
    "type" : "SCALAR"
  } ],
  "asset" : {
    "extras" : {
      "voxelbridge:schemaVersion" : 1
    },
    "generator" : "VoxelBridge",
    "version" : "2.0"
  },
  "buffers" : [ {
    "uri" : "region_-461_64_596__-453_78_604.bin",
    "byteLength" : 210256
  }, {
    "uri" : "region_-461_64_596__-453_78_604.uv.bin",
    "byteLength" : 98944
  } ],
  "bufferViews" : [ {
    "buffer" : 0,
    "byteOffset" : 0,
    "byteLength" : 1392,
    "target" : 34962
  }, {
    "buffer" : 1,
    "byteOffset" : 0,
    "byteLength" : 928,
    "target" : 34962
  }, {
    "buffer" : 1,
    "byteOffset" : 928,
    "byteLength" : 928,
    "target" : 34962
  }, {
    "buffer" : 0,
    "byteOffset" : 1392,
    "byteLength" : 1856,
    "target" : 34962
  }, {
    "buffer" : 0,
    "byteOffset" : 3248,
    "byteLength" : 696,
    "target" : 34963
  }, {
    "buffer" : 0,
    "byteOffset" : 3944,
    "byteLength" : 71424,
    "target" : 34962
  }, {
    "buffer" : 1,
    "byteOffset" : 1856,
    "byteLength" : 47616,
    "target" : 34962
  }, {
    "buffer" : 1,
    "byteOffset" : 49472,
    "byteLength" : 47616,
    "target" : 34962
  }, {
    "buffer" : 0,
    "byteOffset" : 75368,
    "byteLength" : 95232,
    "target" : 34962
  }, {
    "buffer" : 0,
    "byteOffset" : 170600,
    "byteLength" : 35712,
    "target" : 34963
  }, {
    "buffer" : 0,
    "byteOffset" : 206312,
    "byteLength" : 1392,
    "target" : 34962
  }, {
    "buffer" : 1,
    "byteOffset" : 97088,
    "byteLength" : 928,
    "target" : 34962
  }, {
    "buffer" : 1,
    "byteOffset" : 98016,
    "byteLength" : 928,
    "target" : 34962
  }, {
    "buffer" : 0,
    "byteOffset" : 207704,
    "byteLength" : 1856,
    "target" : 34962
  }, {
    "buffer" : 0,
    "byteOffset" : 209560,
    "byteLength" : 696,
    "target" : 34963
  } ],
  "images" : [ {
    "uri" : "textures/colormap/colormap_1001.png"
  }, {
    "uri" : "textures/atlas/atlas_1001.png"
  }, {
    "uri" : "textures/atlas/atlas_1001.png"
  }, {
    "uri" : "textures/atlas/atlas_1001.png"
  } ],
  "materials" : [ {
    "extras" : {
      "voxelbridge:emissive" : false,
      "voxelbridge:colormapTextures" : [ 0 ],
      "voxelbridge:colormapUV" : 1
    },
    "name" : "gtceu:mv_machine_casing",
    "pbrMetallicRoughness" : {
      "baseColorTexture" : {
        "index" : 1
      },
      "metallicFactor" : 0.0,
      "roughnessFactor" : 1.0
    },
    "alphaMode" : "OPAQUE",
    "doubleSided" : true
  }, {
    "extras" : {
      "voxelbridge:emissive" : false,
      "voxelbridge:colormapTextures" : [ 0 ],
      "voxelbridge:colormapUV" : 1
    },
    "name" : "gtceu:solid_machine_casing",
    "pbrMetallicRoughness" : {
      "baseColorTexture" : {
        "index" : 2
      },
      "metallicFactor" : 0.0,
      "roughnessFactor" : 1.0
    },
    "alphaMode" : "OPAQUE",
    "doubleSided" : true
  }, {
    "extras" : {
      "voxelbridge:emissive" : false,
      "voxelbridge:colormapTextures" : [ 0 ],
      "voxelbridge:colormapUV" : 1
    },
    "name" : "gtceu:steel_pipe_casing",
    "pbrMetallicRoughness" : {
      "baseColorTexture" : {
        "index" : 3
      },
      "metallicFactor" : 0.0,
      "roughnessFactor" : 1.0
    },
    "alphaMode" : "OPAQUE",
    "doubleSided" : true
  } ],
  "meshes" : [ {
    "name" : "gtceu:mv_machine_casing",
    "primitives" : [ {
      "attributes" : {
        "POSITION" : 0,
        "TEXCOORD_0" : 1,
        "TEXCOORD_1" : 2,
        "COLOR_0" : 3
      },
      "indices" : 4,
      "material" : 0,
      "mode" : 4
    } ]
  }, {
    "name" : "gtceu:solid_machine_casing",
    "primitives" : [ {
      "attributes" : {
        "POSITION" : 5,
        "TEXCOORD_0" : 6,
        "TEXCOORD_1" : 7,
        "COLOR_0" : 8
      },
      "indices" : 9,
      "material" : 1,
      "mode" : 4
    } ]
  }, {
    "name" : "gtceu:steel_pipe_casing",
    "primitives" : [ {
      "attributes" : {
        "POSITION" : 10,
        "TEXCOORD_0" : 11,
        "TEXCOORD_1" : 12,
        "COLOR_0" : 13
      },
      "indices" : 14,
      "material" : 2,
      "mode" : 4
    } ]
  } ],
  "nodes" : [ {
    "name" : "gtceu:mv_machine_casing",
    "mesh" : 0
  }, {
    "name" : "gtceu:solid_machine_casing",
    "mesh" : 1
  }, {
    "name" : "gtceu:steel_pipe_casing",
    "mesh" : 2
  } ],
  "samplers" : [ {
    "magFilter" : 9728,
    "minFilter" : 9728,
    "wrapS" : 10497,
    "wrapT" : 10497
  } ],
  "scene" : 0,
  "scenes" : [ {
    "nodes" : [ 0, 1, 2 ]
  } ],
  "textures" : [ {
    "sampler" : 0,
    "source" : 0
  }, {
    "sampler" : 0,
    "source" : 1
  }, {
    "sampler" : 0,
    "source" : 2
  }, {
    "sampler" : 0,
    "source" : 3
  } ]
}